<svg width="43" height="37" viewBox="0 0 43 37" fill="none" xmlns="http://www.w3.org/2000/svg">
<path fill-rule="evenodd" clip-rule="evenodd" d="M29.5453 0.00991231C30.2138 0.0239768 30.9432 0.0732019 31.166 0.108363C31.3889 0.143524 31.7806 0.220878 32.0439 0.277136C32.3073 0.333394 32.6517 0.410749 32.8206 0.459974C32.9894 0.502168 33.3811 0.63578 33.6985 0.755328C34.0159 0.874876 34.4076 1.02958 34.5764 1.10694C34.7452 1.18429 35.0896 1.35307 35.353 1.49371C35.6164 1.62732 35.8865 1.76797 35.9608 1.81719C36.0351 1.85939 36.4876 2.16881 36.9738 2.49932C37.6694 2.97751 38.0408 3.30099 38.8039 4.08157C39.3239 4.62305 39.9047 5.27002 40.087 5.52318C40.2693 5.77634 40.58 6.23343 40.7758 6.54285C40.9717 6.85227 41.3161 7.48517 41.5322 7.9493C41.7551 8.41342 42.0184 9.04632 42.1332 9.35574C42.2413 9.66516 42.3831 10.0941 42.4439 10.3051C42.5047 10.5161 42.5857 10.8325 42.6195 11.0083C42.66 11.1841 42.7208 11.5006 42.7545 11.7115C42.795 11.9225 42.8558 12.4288 42.8896 12.8367C42.9301 13.2446 42.9774 13.9197 42.9909 14.3486C43.0111 14.8338 42.9976 15.1503 42.9504 15.1925C42.9098 15.2347 42.8828 15.4667 42.8828 15.7199C42.8828 15.9731 42.8491 16.395 42.8153 16.6693C42.7748 16.9435 42.6937 17.3795 42.6397 17.6538C42.5789 17.928 42.4304 18.4625 42.3088 18.8492C42.1873 19.236 41.9847 19.7916 41.8631 20.0799C41.7483 20.3682 41.5389 20.8112 41.4106 21.0644C41.2823 21.3176 41.1405 21.5848 41.1 21.6551C41.0595 21.7325 40.8434 22.0841 40.6205 22.4287C40.3977 22.7803 39.979 23.3569 39.6953 23.7015C39.4184 24.0461 38.993 24.5243 38.7566 24.7563C38.5203 24.9884 38.1691 25.3048 37.9868 25.4595C37.7977 25.6143 37.6356 25.7619 37.6153 25.783C37.5951 25.8041 37.4127 25.9448 37.2101 26.0924C37.0075 26.2472 36.7172 26.4511 36.5686 26.5566C36.42 26.6621 36.0283 26.8941 35.6907 27.077C35.353 27.2598 34.9006 27.4848 34.6777 27.5762C34.4548 27.6747 34.2117 27.7802 34.1374 27.8153C34.0632 27.8505 33.8673 27.9279 33.6985 27.9841C33.5297 28.0404 33.273 28.1177 33.1245 28.167C32.9759 28.2091 32.699 28.2865 32.5167 28.3357C32.3276 28.392 31.9359 28.4834 31.6388 28.5397C31.3416 28.6029 30.7811 28.6873 30.3894 28.7295C29.9977 28.7717 29.4237 28.7999 28.5323 28.7647L28.5458 28.2373C28.5458 27.949 28.5863 27.534 28.6268 27.3231C28.6673 27.1121 28.7146 26.8238 28.7686 26.4441L29.3562 26.3878C29.6871 26.3597 30.2543 26.3034 30.6258 26.2612C30.9972 26.219 31.4699 26.1346 31.6725 26.0784C31.8751 26.0221 32.1655 25.9448 32.3141 25.9096C32.4626 25.8744 32.7193 25.7901 32.8881 25.7268C33.0569 25.6705 33.2798 25.5791 33.3946 25.5369C33.5026 25.4947 33.9146 25.2908 34.3063 25.0868C34.698 24.8829 35.1707 24.6157 35.3598 24.4891C35.5489 24.3625 35.8798 24.1234 36.1026 23.9546C36.3187 23.7788 36.6496 23.4976 36.832 23.3217C37.0143 23.1459 37.2304 22.935 37.3047 22.8506C37.3857 22.7732 37.5681 22.5693 37.7234 22.3935C37.872 22.2247 38.1488 21.8801 38.3379 21.627C38.527 21.3738 38.8309 20.9027 39.02 20.5721C39.2023 20.2416 39.4455 19.7845 39.5535 19.5525C39.6616 19.3204 39.8642 18.8141 39.9992 18.4273C40.1275 18.0405 40.2829 17.5202 40.3369 17.267C40.3977 17.0138 40.4787 16.6341 40.526 16.4231C40.5665 16.2122 40.6205 15.4316 40.634 14.7002C40.6543 13.9126 40.6408 13.1602 40.5935 12.8719C40.553 12.5976 40.4787 12.1616 40.4247 11.8873C40.3706 11.6131 40.2896 11.2193 40.2356 11.0083C40.1816 10.7973 40.0465 10.3824 39.9317 10.0941C39.8169 9.8058 39.6143 9.32761 39.4792 9.03929C39.3374 8.75097 39.1686 8.41342 39.101 8.30091C39.0268 8.18839 38.9457 8.04072 38.9187 7.98446C38.8984 7.9282 38.7499 7.70317 38.5946 7.4922C38.446 7.28123 38.2704 7.02807 38.2096 6.92962C38.1556 6.83117 37.7909 6.4233 37.406 6.01543C37.0211 5.60053 36.4605 5.08015 36.1634 4.84808C35.8663 4.61602 35.5286 4.36989 35.4205 4.29254C35.3125 4.21518 35.1572 4.11673 35.0829 4.06751C35.0086 4.02531 34.6102 3.80732 34.205 3.59635C33.7998 3.37835 33.4284 3.20254 33.3946 3.20254C33.3608 3.20254 33.192 3.14629 33.0232 3.06893C32.8543 2.99158 32.4762 2.85796 32.179 2.78061C31.8819 2.69622 31.3686 2.58371 31.031 2.52745C30.6933 2.46416 29.9842 2.40087 29.444 2.37977C28.8294 2.35868 28.2554 2.37274 27.8907 2.429C27.5733 2.47822 27.1816 2.54151 27.0128 2.56964C26.844 2.6048 26.5266 2.67513 26.3037 2.73138C26.0809 2.78764 25.6217 2.93532 25.2907 3.05487C24.9598 3.18145 24.4871 3.38538 24.244 3.50493C24.0009 3.62448 23.5957 3.85654 23.3323 4.01828C23.0689 4.17299 22.6908 4.42615 22.4882 4.57383C22.2856 4.7215 21.9344 5.00279 21.7183 5.1997C21.4954 5.3966 21.2253 5.65679 21.1105 5.77634C20.9957 5.89589 20.7661 6.14905 20.5973 6.33892C20.4284 6.53582 20.2326 6.76788 20.1583 6.86633C20.0773 6.95775 19.8544 7.28827 19.6586 7.59769C19.456 7.9071 19.2466 8.23762 19.1858 8.33607C19.1183 8.43452 18.9292 8.81426 18.7604 9.17994C18.5916 9.54561 18.389 10.066 18.3012 10.3403C18.2201 10.6145 18.0851 10.9732 18.004 11.149C17.896 11.381 17.8082 11.4724 17.6596 11.5146C17.5516 11.5428 17.349 11.6693 17.2139 11.7959C17.0788 11.9225 16.9033 12.1546 16.8222 12.3093C16.7479 12.464 16.6331 12.907 16.5791 13.2938C16.5183 13.6806 16.444 14.1869 16.4035 14.4189C16.3698 14.651 16.2955 15.1573 16.2482 15.5441C16.1942 15.9309 16.1334 16.3036 16.1131 16.3739C16.0929 16.4372 16.0051 16.5145 15.9173 16.5356C15.8363 16.5567 15.7079 16.5638 15.6337 16.5497C15.5256 16.5286 15.4851 16.4372 15.4176 16.0715C15.3703 15.8184 15.3365 15.094 15.3298 14.4541C15.3298 13.8142 15.3635 13.0406 15.4041 12.7312C15.4446 12.4218 15.5189 11.9295 15.5729 11.6412C15.6337 11.3529 15.7012 11.0013 15.735 10.8677C15.7687 10.7341 15.8633 10.3824 15.9443 10.0941C16.0254 9.8058 16.2009 9.29948 16.3225 8.96897C16.4508 8.63845 16.6264 8.23059 16.7074 8.05478C16.7952 7.87897 16.937 7.59768 17.0248 7.42188C17.1194 7.24607 17.3692 6.81711 17.5853 6.47253C17.8082 6.12795 18.1526 5.62163 18.3552 5.34737C18.5578 5.08015 19.0373 4.53867 19.4087 4.15189C19.7869 3.76512 20.3947 3.20957 20.7661 2.91422C21.1375 2.61887 21.59 2.28835 21.7656 2.17584C21.9479 2.06332 22.191 1.91565 22.3058 1.83829C22.4274 1.76797 22.7178 1.60623 22.9609 1.47965C23.204 1.35307 23.5687 1.17726 23.7713 1.09287C23.9739 1.00849 24.2035 0.910037 24.2778 0.881908C24.352 0.853779 24.5952 0.762361 24.818 0.677974C25.0409 0.600619 25.4663 0.474039 25.7635 0.396685C26.0606 0.326363 26.4726 0.227911 26.6751 0.185718C26.8777 0.136492 27.337 0.0732019 27.6881 0.0380408C28.0393 0.00287965 28.8767 -0.0111844 29.5453 0.00991231ZM29.579 4.79183C30.0045 4.81292 30.5988 4.87621 30.8959 4.93247C31.193 4.99576 31.7063 5.1364 32.0439 5.25595C32.3816 5.36847 32.9421 5.6146 33.2933 5.79743C33.6445 5.98027 34.1915 6.32485 34.5089 6.55691C34.8263 6.79601 35.299 7.20388 35.5624 7.4711C35.8257 7.7313 36.2512 8.23762 36.5078 8.5822C36.7644 8.93381 37.1156 9.50342 37.2844 9.848C37.46 10.1996 37.6829 10.6989 37.7842 10.9732C37.8855 11.2474 38.0273 11.7045 38.1016 11.9928C38.1691 12.2811 38.2704 12.9351 38.3177 13.4344C38.3649 13.9337 38.392 14.4611 38.3852 14.5948C38.3717 14.7284 38.3312 15.1714 38.2907 15.5793C38.2501 15.9871 38.1894 16.4161 38.1556 16.5286C38.1218 16.6411 38.0138 17.0068 37.9192 17.3373C37.8247 17.6678 37.6018 18.2374 37.4262 18.6031C37.2507 18.9688 36.9535 19.5103 36.7712 19.7986C36.5889 20.0869 36.0824 20.6917 35.6569 21.1347C35.1842 21.627 34.6507 22.1052 34.3063 22.3372C33.9889 22.5552 33.4891 22.8506 33.192 22.9912C32.8949 23.1389 32.591 23.2866 32.5167 23.3217C32.4424 23.3569 32.2465 23.4272 32.0777 23.4835C31.9089 23.5327 31.578 23.6312 31.3349 23.6874C31.0917 23.7507 30.7338 23.8281 30.538 23.8703C30.3489 23.9125 29.9775 23.9476 29.7141 23.9476C29.4034 23.9476 29.2279 23.9195 29.2008 23.8632C29.1806 23.814 29.1941 23.5327 29.2346 23.2444C29.2751 22.9561 29.3359 22.4779 29.3764 22.1896C29.4237 21.9012 29.4575 21.6551 29.4642 21.6481C29.471 21.641 29.6601 21.5989 29.8829 21.5567C30.1058 21.5145 30.4367 21.4512 30.6258 21.409C30.8081 21.3668 31.0985 21.2824 31.2673 21.2332C31.4362 21.1769 31.6793 21.0785 31.8076 21.0222C31.9359 20.9589 32.1655 20.8464 32.3141 20.7761C32.4626 20.6987 32.645 20.6003 32.7193 20.5511C32.7936 20.5018 33.0367 20.326 33.2595 20.1572C33.4824 19.9885 33.9011 19.5947 34.1915 19.2782C34.5089 18.9407 34.86 18.4554 35.0694 18.0757C35.2652 17.7311 35.4678 17.3444 35.5151 17.2318C35.5624 17.1193 35.6637 16.831 35.7379 16.5989C35.8122 16.3669 35.9068 16.0223 35.9405 15.8254C35.9811 15.6355 36.0216 15.0589 36.0418 14.5596C36.0621 13.8704 36.0418 13.4977 35.9541 13.0477C35.8933 12.7171 35.792 12.2952 35.7244 12.0983C35.6637 11.9084 35.5083 11.5287 35.3868 11.2544C35.2652 10.9802 35.0154 10.5442 34.8398 10.2699C34.6642 9.99568 34.2793 9.53858 33.9889 9.25026C33.6985 8.95491 33.2933 8.59626 33.0907 8.44155C32.8881 8.29388 32.5234 8.06884 32.2803 7.94226C32.0372 7.81568 31.551 7.61175 31.1998 7.48517C30.5582 7.25311 30.5515 7.25311 29.2076 7.25311C28.1136 7.24607 27.7827 7.2742 27.4518 7.37265C27.2289 7.43594 26.8777 7.56252 26.6751 7.64691C26.4726 7.7313 26.1349 7.89304 25.9323 8.00555C25.7297 8.11807 25.392 8.32904 25.1894 8.46968C24.9869 8.61032 24.5817 8.976 24.2778 9.28542C23.9806 9.59484 23.6159 10.0379 23.4674 10.2699C23.3121 10.502 23.0824 10.931 22.9406 11.2193C22.8056 11.5076 22.6908 11.7889 22.6908 11.8381C22.6908 11.8803 22.6232 11.9366 22.5354 11.9436C22.4544 11.9577 22.218 11.9436 22.0154 11.9155C21.8128 11.8803 21.4009 11.8241 21.1038 11.7819C20.8066 11.7397 20.523 11.6904 20.4757 11.6764C20.4352 11.6553 20.3947 11.5709 20.3947 11.4865C20.3947 11.3951 20.4419 11.1982 20.496 11.0435C20.5567 10.8888 20.6513 10.6497 20.7053 10.5161C20.7661 10.3824 20.8674 10.1574 20.9349 10.0238C21.0025 9.89019 21.1038 9.70032 21.151 9.60187C21.1983 9.50342 21.2996 9.32761 21.3739 9.2151C21.4414 9.10258 21.6373 8.81426 21.8061 8.5822C21.9749 8.35013 22.2923 7.95633 22.5219 7.7102C22.7448 7.46407 23.1702 7.07027 23.4674 6.83117C23.7645 6.58504 24.19 6.27563 24.4128 6.14201C24.6357 6.00137 24.9869 5.80447 25.1894 5.69898C25.392 5.60053 25.7297 5.45286 25.9323 5.3755C26.1349 5.29815 26.4523 5.18563 26.6414 5.12234C26.8237 5.06608 27.1479 4.9817 27.3505 4.94654C27.5531 4.90434 27.965 4.84808 28.2622 4.81995C28.5593 4.78479 29.1536 4.77776 29.579 4.79183ZM29.1063 9.53858C29.2751 9.53858 29.6668 9.58077 29.9842 9.64406C30.3016 9.70735 30.7879 9.8691 31.0647 10.0027C31.3416 10.1434 31.6928 10.3473 31.8414 10.4668C31.9899 10.5864 32.2465 10.8114 32.4019 10.9661C32.5639 11.1279 32.8273 11.4584 32.9826 11.7115C33.138 11.9647 33.3068 12.2671 33.3541 12.3796C33.4013 12.4921 33.5094 12.7804 33.5837 13.0125C33.7052 13.3641 33.7255 13.5962 33.7255 14.3838C33.7255 15.1644 33.6985 15.4035 33.5769 15.7551C33.5026 15.9871 33.3946 16.2755 33.3473 16.388C33.3 16.5005 33.1515 16.7747 33.0164 16.9857C32.8813 17.1967 32.6382 17.5131 32.4762 17.6889C32.3141 17.8647 32.0575 18.1038 31.9089 18.2304C31.7603 18.35 31.4429 18.5398 31.1998 18.6594C30.9567 18.7789 30.5853 18.9336 30.3692 19.004C30.1125 19.0883 29.964 19.1094 29.9234 19.0602C29.8897 19.018 29.9032 18.6805 29.9505 18.2515C30.0045 17.8436 30.072 17.3092 30.1125 17.056C30.1801 16.613 30.2003 16.5849 30.6325 16.177C30.8756 15.9449 31.1323 15.6285 31.2065 15.4738C31.2741 15.3191 31.3619 15.0167 31.4024 14.8057C31.4429 14.5948 31.4564 14.2642 31.4362 14.0673C31.4091 13.8775 31.3281 13.5751 31.2471 13.3993C31.1728 13.2235 31.031 12.9773 30.9364 12.8437C30.8419 12.7101 30.6393 12.5202 30.4907 12.4218C30.3421 12.3233 30.0855 12.1827 29.9167 12.1194C29.7344 12.0421 29.4305 11.9928 29.1401 11.9928C28.8024 11.9928 28.5728 12.035 28.3297 12.1405C28.1406 12.2249 27.857 12.3937 27.7016 12.5132C27.4112 12.7242 27.3977 12.7312 26.8913 12.675C26.6009 12.6468 26.1889 12.5906 25.9661 12.5484C25.7432 12.5062 25.4528 12.457 25.3245 12.4288C25.1962 12.4007 25.0814 12.3304 25.0679 12.2741C25.0544 12.2179 25.1624 11.9858 25.3043 11.7678C25.4461 11.5498 25.6689 11.2474 25.804 11.0997C25.9391 10.9521 26.1349 10.7552 26.2429 10.6567C26.351 10.5583 26.6009 10.3754 26.79 10.2488C26.9858 10.1293 27.31 9.96051 27.499 9.88316C27.6949 9.8058 28.0663 9.70032 28.3297 9.64406C28.5931 9.59484 28.9375 9.54561 29.1063 9.53858ZM18.3012 12.4218C18.3552 12.4218 18.5983 12.4499 18.8414 12.4851C19.0845 12.5202 19.5978 12.5976 19.9895 12.6609C20.3812 12.7242 21.0025 12.8156 21.3739 12.8719C21.7453 12.9281 22.3666 13.0195 22.7583 13.0828C23.15 13.1461 23.6497 13.2235 23.8726 13.2586C24.0954 13.2938 24.5952 13.3711 24.9869 13.4344C25.3785 13.4977 25.8918 13.5751 26.1349 13.6173C26.378 13.6524 26.8777 13.7298 27.2492 13.786C27.6206 13.8423 28.1541 13.9197 28.431 13.9619C28.7619 14.0181 29.0118 14.1025 29.1401 14.2009C29.2481 14.2853 29.3629 14.4541 29.3832 14.5666C29.4102 14.6791 29.4034 14.9604 29.3697 15.1925C29.3427 15.4246 29.2684 15.9449 29.2076 16.3528C29.1468 16.7607 29.0725 17.2811 29.0388 17.5131C29.005 17.7452 28.9307 18.2656 28.8699 18.6734C28.8092 19.0813 28.7349 19.6017 28.7011 19.8338C28.6673 20.0658 28.5931 20.5862 28.5323 20.9941C28.4715 21.4019 28.3837 22.0489 28.3297 22.4357C28.2757 22.8225 28.1879 23.4554 28.1338 23.8421C28.0798 24.2289 27.9853 24.8759 27.9312 25.2837C27.8705 25.6916 27.7962 26.2261 27.7557 26.4792C27.7151 26.7324 27.6544 27.1262 27.6206 27.3582C27.5868 27.5903 27.5125 28.1107 27.4518 28.5186C27.391 28.9264 27.3032 29.5734 27.2492 29.9602C27.1951 30.3469 27.1074 30.9798 27.0533 31.3666C26.9993 31.7534 26.9318 32.1964 26.9115 32.3511C26.8913 32.5058 26.8575 32.7379 26.8372 32.8645C26.8237 32.9981 26.7224 33.1739 26.5874 33.3005C26.4185 33.4692 26.3105 33.5114 26.0809 33.5114C25.9255 33.5114 25.6689 33.4833 25.5068 33.4482C25.3515 33.413 24.872 33.3286 24.4466 33.2653C24.0211 33.202 23.5011 33.1247 23.2985 33.0895C23.096 33.0473 22.6097 32.97 22.218 32.9137C21.8264 32.8574 21.3266 32.7801 21.1038 32.7379C20.8809 32.7027 20.5297 32.6535 20.3271 32.6324C20.1245 32.6043 19.7936 32.541 19.5978 32.4847C19.4087 32.4285 19.2466 32.3652 19.2466 32.3371C19.2466 32.3019 19.4222 32.2034 19.6316 32.112C19.8477 32.0206 20.2529 31.8307 20.5297 31.7042C20.8066 31.5705 21.097 31.4369 21.1713 31.4018C21.2456 31.3666 21.4144 31.2963 21.5427 31.233C21.671 31.1767 22.1843 30.9517 22.6705 30.7407C23.1635 30.5227 23.5889 30.3469 23.6159 30.3469C23.6497 30.3469 23.7443 30.2907 23.9874 30.1008L23.7375 29.3976C23.6024 29.0108 23.4134 28.5397 23.3121 28.3428C23.2108 28.1529 22.9947 27.8013 22.8258 27.5762C22.657 27.3442 22.3666 27.0348 22.1843 26.8941C21.9952 26.7464 21.7251 26.5847 21.5765 26.5284C21.4279 26.4652 21.151 26.3808 20.9687 26.3386C20.7188 26.2753 20.5297 26.2753 20.2258 26.3315C20.003 26.3808 19.7126 26.4441 19.5843 26.4792C19.456 26.5144 19.1183 26.6128 18.8414 26.6902C18.5646 26.7746 18.2134 26.8871 18.0648 26.9363C17.9162 26.9855 17.5381 27.1121 17.2207 27.2176C16.9033 27.3231 16.4373 27.4708 16.1739 27.5481C15.9105 27.6184 15.6742 27.6677 15.6337 27.6536C15.5931 27.6325 15.5729 27.513 15.5796 27.3864C15.5864 27.2528 15.6269 26.9293 15.6674 26.655C15.7079 26.3808 15.7822 25.8604 15.8363 25.4947C15.8903 25.129 15.9781 24.4961 16.0321 24.0883C16.0861 23.6804 16.1874 23.0053 16.2415 22.5763C16.3022 22.1474 16.3765 21.627 16.4103 21.416C16.444 21.205 16.5183 20.6847 16.5791 20.2557C16.6399 19.8267 16.7142 19.3274 16.7479 19.1305C16.775 18.9407 16.8492 18.4343 16.91 18.0054C16.964 17.5764 17.0586 16.9084 17.1194 16.5145C17.1734 16.1137 17.2612 15.4808 17.3152 15.1081C17.3692 14.7284 17.4435 14.2009 17.484 13.9267C17.5313 13.6524 17.5853 13.3079 17.6124 13.1461C17.6394 12.9844 17.7136 12.7875 17.7812 12.696C17.8487 12.6117 17.9703 12.5132 18.0513 12.4781C18.1323 12.4499 18.2472 12.4218 18.3012 12.4218ZM15.8363 17.6538L15.8228 18.1109C15.816 18.364 15.7755 18.7438 15.7417 18.9547C15.7079 19.1657 15.6404 19.5806 15.5999 19.8689C15.5594 20.1572 15.4918 20.5159 15.4581 20.6636C15.3973 20.9097 15.377 20.9238 15.0731 20.9659C14.8976 20.987 14.6004 21.0574 14.4181 21.1136C14.229 21.1699 13.9454 21.3105 13.7765 21.423C13.6077 21.5356 13.3984 21.6973 13.3038 21.7887C13.2093 21.8731 12.9864 22.1333 12.8041 22.3654C12.6217 22.5974 12.4056 22.949 12.3246 23.1389C12.2368 23.3358 12.1085 23.7085 12.0275 23.9828C11.9262 24.3344 11.8856 24.6719 11.8856 25.1783C11.8856 25.7408 11.9194 25.9799 12.0477 26.3737C12.1355 26.648 12.2706 27.0066 12.3381 27.1824C12.4124 27.3582 12.6285 27.6958 12.8176 27.9419C13.0945 28.2795 13.2768 28.4342 13.655 28.6311C14.1007 28.8631 14.202 28.8842 14.722 28.8842C15.0394 28.8842 15.5054 28.828 15.7687 28.7647C16.0321 28.7014 16.5318 28.5537 16.883 28.4342C17.2342 28.3217 17.6596 28.181 17.8285 28.1318C17.9973 28.0826 18.2944 27.9911 18.4835 27.9279C18.6794 27.8646 19.0035 27.7661 19.1926 27.7099C19.3884 27.6466 19.7126 27.5551 19.9017 27.4989C20.0975 27.4426 20.3879 27.3934 20.5432 27.3934C20.7053 27.3934 20.9552 27.4356 21.1038 27.4778C21.2793 27.534 21.5157 27.7099 21.7858 27.9911C22.0425 28.2513 22.2788 28.5889 22.4071 28.8702C22.5287 29.1233 22.6232 29.3976 22.6232 29.489C22.6232 29.5875 22.5692 29.6578 22.4679 29.6859C22.3869 29.714 22.1843 29.7914 22.0154 29.8687C21.8466 29.9391 21.6508 30.0305 21.5765 30.0657C21.5022 30.1008 21.2861 30.1922 21.1038 30.2766C20.9147 30.361 20.7053 30.4524 20.631 30.4876C20.5567 30.5157 20.3609 30.6071 20.1921 30.6845C20.0232 30.7618 19.7801 30.8744 19.6518 30.9306C19.5235 30.9869 19.1791 31.1486 18.8887 31.2893C18.6051 31.4299 18.3552 31.5424 18.3349 31.5424C18.3147 31.5424 18.0378 31.669 17.7069 31.8307C17.3827 31.9854 16.8898 32.2245 16.6129 32.3652C16.336 32.5058 15.6674 32.8434 15.1272 33.1176C14.5869 33.3919 13.4389 34.0529 12.5745 34.5803C11.7168 35.1148 10.9942 35.5508 10.974 35.5508C10.9537 35.5508 10.7984 35.6422 10.616 35.7477C10.4405 35.8602 10.042 36.0641 9.72461 36.2048C9.40721 36.3454 8.96825 36.5072 8.7454 36.5705C8.52254 36.6267 8.1241 36.7252 7.86748 36.7814C7.60411 36.8377 6.89502 36.915 6.28048 36.9572C5.66594 36.9994 4.67997 37.0135 4.08569 36.9854C3.49141 36.9572 2.9444 36.915 2.87011 36.8869C2.78232 36.8517 2.63375 36.5986 2.43791 36.1415C2.27583 35.7618 2.07323 35.2695 1.97869 35.0585C1.8909 34.8476 1.77609 34.5733 1.72207 34.4608C1.66804 34.3483 1.56674 34.0951 1.4857 33.8982C1.40467 33.7083 1.30337 33.4482 1.24934 33.3356C1.19532 33.2231 1.08051 32.9489 0.992721 32.7379C0.898176 32.5269 0.641554 31.9011 0.411945 31.3455C0.18909 30.797 0 30.2696 0 30.1711C0 30.0305 0.0607786 29.9672 0.3174 29.8406C0.499737 29.7492 0.958955 29.489 1.35064 29.2499C1.74233 29.0108 2.28934 28.6381 2.56622 28.4201C2.8431 28.1951 3.40361 27.7028 3.81556 27.3231C4.22075 26.9433 4.66646 26.5144 4.79477 26.3667C4.92308 26.212 5.21347 25.8744 5.44308 25.6002C5.66594 25.3259 6.09139 24.7774 6.39528 24.3695C6.69242 23.9617 7.09762 23.3921 7.29346 23.1037C7.49605 22.8154 7.84047 22.288 8.07008 21.9434C8.29969 21.5989 8.60358 21.1347 8.7454 20.9238C8.88721 20.7128 9.13033 20.3823 9.2789 20.1854C9.42747 19.9955 9.70435 19.665 9.89344 19.4611C10.0758 19.2501 10.3999 18.9477 10.6025 18.793C10.8051 18.6313 11.0415 18.4554 11.1293 18.4132C11.2103 18.364 11.4062 18.2796 11.5615 18.2234C11.7236 18.1671 12.0207 18.0898 12.2233 18.0476C12.4259 18.0054 12.8243 17.9421 13.1012 17.9069C13.3781 17.8647 13.9859 17.7944 14.4519 17.7522C14.9178 17.71 15.3095 17.6608 15.3298 17.6467C15.3433 17.6256 15.4648 17.6186 15.8363 17.6538ZM14.9921 22.0559C15.0461 22.0489 15.1272 22.0841 15.1677 22.1333C15.2217 22.1896 15.2352 22.3443 15.2015 22.5623C15.1812 22.7451 15.1137 22.9209 15.0596 22.9631C15.0056 22.9983 14.8368 23.0616 14.6882 23.1037C14.5396 23.153 14.229 23.2444 13.9926 23.3217C13.763 23.3921 13.5402 23.4413 13.5064 23.4202C13.4659 23.3991 13.4389 23.3428 13.4389 23.3006C13.4389 23.2514 13.5537 23.0686 13.6955 22.8998C13.8306 22.724 14.0939 22.4849 14.283 22.3583C14.4654 22.2388 14.6815 22.1192 14.7557 22.0981C14.83 22.0841 14.9381 22.063 14.9921 22.0559ZM14.8368 23.9546C14.8841 23.9476 14.9381 24.0179 14.9516 24.1094C14.9718 24.1937 14.9583 24.4539 14.9246 24.686C14.8773 24.9954 14.8233 25.1431 14.7085 25.2345C14.6207 25.3048 14.4316 25.3892 14.283 25.4314C14.1345 25.4666 13.9048 25.5299 13.7765 25.5791C13.6482 25.6213 13.4389 25.6846 13.3173 25.7197C13.1552 25.7619 13.0742 25.7479 12.9999 25.6705C12.9324 25.6002 12.8986 25.4244 12.8986 25.1642C12.8986 24.9392 12.9324 24.7071 12.9797 24.6438C13.0269 24.5805 13.162 24.4961 13.27 24.4539C13.3781 24.4117 13.7022 24.3133 13.9791 24.2289C14.256 24.1445 14.5464 24.0531 14.6207 24.0179C14.695 23.9828 14.7963 23.9546 14.8368 23.9546ZM14.3978 26.3456C14.5059 26.3386 14.6004 26.3597 14.6139 26.3948C14.6342 26.423 14.6139 26.6621 14.5802 26.9363C14.5464 27.2457 14.4789 27.4778 14.4046 27.5551C14.337 27.6255 14.229 27.6817 14.1615 27.6747C14.1007 27.6747 13.9183 27.5551 13.763 27.4145C13.6145 27.2668 13.4456 27.0348 13.3916 26.9011C13.3376 26.7675 13.3038 26.648 13.3173 26.648C13.3308 26.641 13.5334 26.5706 13.7765 26.4933C14.0196 26.4159 14.2965 26.3456 14.3978 26.3456Z" fill="white"/>
</svg>
