<svg width="142" height="117" viewBox="0 0 142 117" fill="none" xmlns="http://www.w3.org/2000/svg">
<path fill-rule="evenodd" clip-rule="evenodd" d="M97.3032 0.551264C99.489 0.595423 101.874 0.749979 102.602 0.860377C103.331 0.970775 104.611 1.21365 105.472 1.39029C106.334 1.56692 107.46 1.8098 108.012 1.96436C108.563 2.09683 109.844 2.51635 110.882 2.8917C111.919 3.26705 113.2 3.7528 113.752 3.99568C114.304 4.23855 115.43 4.76846 116.291 5.21006C117.152 5.62957 118.035 6.07116 118.278 6.22572C118.521 6.3582 120 7.3297 121.59 8.36744C123.864 9.86885 125.079 10.8845 127.573 13.3353C129.274 15.0355 131.172 17.0668 131.768 17.8617C132.365 18.6565 133.38 20.0917 134.021 21.0632C134.661 22.0347 135.787 24.0219 136.493 25.4791C137.222 26.9364 138.083 28.9235 138.458 29.895C138.812 30.8665 139.275 32.2134 139.474 32.8758C139.673 33.5382 139.938 34.5318 140.048 35.0837C140.181 35.6357 140.379 36.6293 140.49 37.2917C140.622 37.9541 140.821 39.5438 140.931 40.8244C141.064 42.1051 141.218 44.2247 141.262 45.5716C141.329 47.095 141.284 48.0886 141.13 48.2211C140.997 48.3536 140.909 49.0822 140.909 49.8771C140.909 50.6719 140.799 51.9967 140.688 52.8578C140.556 53.7189 140.291 55.0879 140.114 55.949C139.916 56.8101 139.43 58.4881 139.032 59.7025C138.635 60.9169 137.973 62.6612 137.575 63.5664C137.2 64.4717 136.515 65.8627 136.096 66.6576C135.676 67.4524 135.213 68.2915 135.08 68.5123C134.948 68.7551 134.241 69.8591 133.513 70.941C132.784 72.045 131.415 73.8555 130.488 74.9374C129.583 76.0193 128.192 77.5207 127.419 78.2494C126.646 78.978 125.498 79.9716 124.902 80.4573C124.284 80.9431 123.754 81.4067 123.688 81.473C123.621 81.5392 123.025 81.9808 122.363 82.4445C121.7 82.9302 120.751 83.5705 120.265 83.9017C119.78 84.2329 118.499 84.9616 117.395 85.5356C116.291 86.1097 114.812 86.8162 114.083 87.1033C113.355 87.4124 112.56 87.7436 112.317 87.854C112.074 87.9644 111.434 88.2073 110.882 88.3839C110.33 88.5605 109.491 88.8034 109.005 88.958C108.519 89.0904 107.614 89.3333 107.018 89.4879C106.4 89.6645 105.119 89.9515 104.148 90.1282C103.176 90.3269 101.344 90.5919 100.063 90.7243C98.7825 90.8568 96.9058 90.9451 93.9914 90.8347L94.0355 89.1788C94.0355 88.2735 94.168 86.9708 94.3005 86.3084C94.4329 85.646 94.5875 84.7408 94.7641 83.5485L96.685 83.3718C97.7669 83.2835 99.6215 83.1069 100.836 82.9744C102.05 82.8419 103.596 82.577 104.258 82.4003C104.92 82.2237 105.87 81.9808 106.356 81.8704C106.841 81.76 107.68 81.4951 108.232 81.2963C108.784 81.1197 109.513 80.8327 109.888 80.7002C110.241 80.5677 111.588 79.9274 112.869 79.2871C114.149 78.6468 115.695 77.8078 116.313 77.4103C116.931 77.0129 118.013 76.2622 118.742 75.7323C119.448 75.1803 120.53 74.2971 121.126 73.7451C121.723 73.1931 122.429 72.5307 122.672 72.2658C122.937 72.0229 123.533 71.3826 124.041 70.8306C124.527 70.3007 125.432 69.2188 126.05 68.4239C126.668 67.6291 127.662 66.1497 128.28 65.112C128.876 64.0743 129.671 62.6391 130.024 61.9105C130.377 61.1818 131.04 59.5921 131.481 58.3777C131.901 57.1633 132.409 55.5295 132.585 54.7346C132.784 53.9397 133.049 52.7474 133.204 52.085C133.336 51.4227 133.513 48.9718 133.557 46.6755C133.623 44.2026 133.579 41.8401 133.424 40.9348C133.292 40.0737 133.049 38.7048 132.872 37.8437C132.696 36.9826 132.431 35.7461 132.254 35.0837C132.078 34.4214 131.636 33.1187 131.261 32.2134C130.885 31.3081 130.223 29.8067 129.781 28.9015C129.318 27.9962 128.766 26.9364 128.545 26.5831C128.302 26.2298 128.037 25.7662 127.949 25.5895C127.883 25.4129 127.397 24.7063 126.889 24.044C126.403 23.3816 125.829 22.5867 125.631 22.2776C125.454 21.9685 124.262 20.6879 123.003 19.4072C121.745 18.1045 119.912 16.4706 118.941 15.742C117.969 15.0134 116.865 14.2406 116.512 13.9977C116.159 13.7549 115.651 13.4457 115.408 13.2912C115.165 13.1587 113.862 12.4742 112.538 11.8119C111.213 11.1274 109.999 10.5754 109.888 10.5754C109.778 10.5754 109.226 10.3988 108.674 10.1559C108.122 9.91301 106.885 9.4935 105.914 9.25062C104.943 8.98567 103.265 8.63239 102.161 8.45576C101.057 8.25704 98.7383 8.05833 96.972 7.99209C94.9628 7.92585 93.0861 7.97001 91.8939 8.14664C90.8562 8.3012 89.5756 8.49992 89.0236 8.58824C88.4716 8.69863 87.4339 8.91943 86.7053 9.09607C85.9767 9.2727 84.4753 9.73637 83.3935 10.1117C82.3116 10.5092 80.7661 11.1495 79.9712 11.5248C79.1764 11.9002 77.8516 12.6288 76.9906 13.1366C76.1295 13.6224 74.8931 14.4172 74.2307 14.8809C73.5683 15.3446 72.4202 16.2278 71.7137 16.846C70.9851 17.4642 70.1019 18.2812 69.7266 18.6565C69.3513 19.0319 68.6006 19.8267 68.0486 20.4229C67.4966 21.0411 66.8563 21.7698 66.6135 22.0789C66.3485 22.3659 65.6199 23.4036 64.9796 24.3751C64.3172 25.3466 63.6328 26.3844 63.4341 26.6935C63.2133 27.0026 62.5951 28.1949 62.0431 29.3431C61.4911 30.4912 60.8288 32.1251 60.5417 32.9862C60.2768 33.8473 59.8352 34.9734 59.5703 35.5253C59.217 36.254 58.93 36.541 58.4442 36.6735C58.091 36.7618 57.4286 37.1592 56.987 37.5567C56.5455 37.9541 55.9714 38.6827 55.7065 39.1685C55.4636 39.6542 55.0882 41.0452 54.9116 42.2596C54.7129 43.474 54.47 45.0637 54.3376 45.7924C54.2272 46.521 53.9843 48.1107 53.8297 49.3251C53.6531 50.5395 53.4544 51.7097 53.3882 51.9305C53.3219 52.1292 53.0349 52.3721 52.7479 52.4383C52.4829 52.5046 52.0634 52.5266 51.8206 52.4825C51.4673 52.4162 51.3348 52.1292 51.114 50.9811C50.9595 50.1862 50.8491 47.912 50.827 45.9028C50.827 43.8935 50.9374 41.4648 51.0699 40.4932C51.2023 39.5217 51.4452 37.9762 51.6218 37.0709C51.8206 36.1656 52.0413 35.0617 52.1517 34.6422C52.2621 34.2226 52.5712 33.1187 52.8362 32.2134C53.1011 31.3081 53.6752 29.7184 54.0726 28.6807C54.4921 27.6429 55.0662 26.3623 55.3311 25.8103C55.6181 25.2583 56.0818 24.3751 56.3688 23.8232C56.6779 23.2712 57.4948 21.9243 58.2014 20.8424C58.93 19.7605 60.056 18.1708 60.7184 17.3097C61.3807 16.4706 62.9484 14.7705 64.1627 13.5561C65.3991 12.3418 67.3862 10.5975 68.6006 9.67013C69.8149 8.74279 71.2942 7.70505 71.8682 7.35178C72.4644 6.9985 73.2592 6.53483 73.6346 6.29196C74.032 6.07116 74.9814 5.56333 75.7762 5.1659C76.5711 4.76847 77.7633 4.21648 78.4257 3.95152C79.0881 3.68657 79.8388 3.37745 80.0816 3.28913C80.3245 3.20081 81.1193 2.91378 81.8479 2.64883C82.5765 2.40595 83.9675 2.00852 84.939 1.76564C85.9105 1.54485 87.2573 1.23573 87.9197 1.10325C88.582 0.948697 90.0834 0.749979 91.2315 0.639581C92.3796 0.529183 95.1174 0.485025 97.3032 0.551264ZM97.4136 15.5654C98.8046 15.6316 100.748 15.8303 101.719 16.007C102.69 16.2057 104.368 16.6473 105.472 17.0226C106.576 17.3759 108.409 18.1487 109.557 18.7228C110.705 19.2968 112.494 20.3787 113.531 21.1074C114.569 21.8581 116.114 23.1387 116.976 23.9777C117.837 24.7947 119.228 26.3844 120.067 27.4663C120.906 28.5703 122.054 30.3587 122.606 31.4406C123.18 32.5446 123.908 34.1122 124.24 34.9734C124.571 35.8345 125.034 37.2696 125.277 38.1749C125.498 39.0802 125.829 41.1336 125.984 42.7012C126.138 44.2689 126.227 45.9248 126.205 46.3443C126.16 46.7639 126.028 48.1549 125.895 49.4355C125.763 50.7161 125.564 52.063 125.454 52.4162C125.343 52.7695 124.99 53.9176 124.681 54.9554C124.372 55.9931 123.643 57.7816 123.069 58.9297C122.495 60.0778 121.524 61.778 120.928 62.6832C120.332 63.5885 118.676 65.4874 117.285 66.8784C115.739 68.4239 113.995 69.9254 112.869 70.654C111.831 71.3384 110.197 72.2658 109.226 72.7074C108.254 73.171 107.261 73.6347 107.018 73.7451C106.775 73.8555 106.135 74.0763 105.583 74.2529C105.031 74.4075 103.949 74.7166 103.154 74.8933C102.359 75.092 101.189 75.3348 100.549 75.4673C99.9306 75.5998 98.7163 75.7102 97.8552 75.7102C96.8396 75.7102 96.2655 75.6219 96.1772 75.4452C96.111 75.2907 96.1551 74.4075 96.2876 73.5022C96.4201 72.597 96.6188 71.0956 96.7512 70.1903C96.9058 69.285 97.0162 68.5123 97.0383 68.4902C97.0603 68.4681 97.6786 68.3356 98.4072 68.2031C99.1358 68.0707 100.218 67.8719 100.836 67.7395C101.432 67.607 102.381 67.342 102.933 67.1875C103.485 67.0108 104.28 66.7017 104.7 66.5251C105.119 66.3264 105.87 65.9731 106.356 65.7523C106.841 65.5094 107.437 65.2003 107.68 65.0458C107.923 64.8912 108.718 64.3392 109.447 63.8093C110.175 63.2794 111.544 62.0429 112.494 61.0494C113.531 59.9895 114.679 58.466 115.364 57.2737C116.004 56.1918 116.666 54.9775 116.821 54.6242C116.976 54.2709 117.307 53.3657 117.55 52.637C117.792 51.9084 118.102 50.8265 118.212 50.2083C118.344 49.6121 118.477 47.8016 118.543 46.2339C118.609 44.0701 118.543 42.8999 118.256 41.4868C118.057 40.4491 117.726 39.1243 117.505 38.5061C117.307 37.9099 116.799 36.7176 116.402 35.8565C116.004 34.9954 115.187 33.6265 114.613 32.7654C114.039 31.9043 112.781 30.4691 111.831 29.5639C110.882 28.6365 109.557 27.5104 108.895 27.0247C108.232 26.561 107.04 25.8545 106.245 25.457C105.45 25.0596 103.861 24.4193 102.713 24.0219C100.615 23.2932 100.593 23.2932 96.1993 23.2932C92.6225 23.2712 91.5406 23.3595 90.4587 23.6686C89.7301 23.8673 88.582 24.2647 87.9197 24.5297C87.2573 24.7947 86.1533 25.3025 85.491 25.6558C84.8286 26.009 83.7247 26.6714 83.0623 27.113C82.3999 27.5546 81.0752 28.7027 80.0816 29.6742C79.1102 30.6458 77.9179 32.0368 77.4322 32.7654C76.9243 33.494 76.1736 34.8409 75.71 35.7461C75.2684 36.6514 74.8931 37.5346 74.8931 37.6891C74.8931 37.8216 74.6723 37.9983 74.3853 38.0203C74.1203 38.0645 73.3475 38.0203 72.6852 37.932C72.0228 37.8216 70.676 37.645 69.7045 37.5125C68.733 37.38 67.8057 37.2255 67.6512 37.1813C67.5187 37.1151 67.3862 36.8501 67.3862 36.5852C67.3862 36.2981 67.5408 35.6799 67.7174 35.1941C67.9161 34.7084 68.2252 33.9577 68.4019 33.5382C68.6006 33.1187 68.9318 32.4121 69.1525 31.9926C69.3733 31.5731 69.7045 30.9769 69.8591 30.6678C70.0136 30.3587 70.3448 29.8067 70.5877 29.4535C70.8085 29.1002 71.4488 28.1949 72.0007 27.4663C72.5527 26.7377 73.5904 25.5012 74.3411 24.7284C75.0697 23.9556 76.4607 22.7192 77.4322 21.9685C78.4036 21.1957 79.7946 20.2242 80.5232 19.8047C81.2518 19.3631 82.3999 18.7448 83.0623 18.4137C83.7247 18.1045 84.8286 17.6409 85.491 17.398C86.1533 17.1551 87.191 16.8018 87.8093 16.6031C88.4054 16.4265 89.4652 16.1615 90.1275 16.0511C90.7899 15.9187 92.1367 15.742 93.1082 15.6537C94.0797 15.5433 96.0226 15.5212 97.4136 15.5654ZM95.8681 30.4691C96.4201 30.4691 97.7006 30.6016 98.7383 30.8003C99.7761 30.999 101.366 31.5069 102.271 31.9264C103.176 32.368 104.324 33.0083 104.81 33.3836C105.296 33.759 106.135 34.4655 106.643 34.9513C107.173 35.4591 108.034 36.4968 108.541 37.2917C109.049 38.0866 109.601 39.036 109.756 39.3893C109.91 39.7425 110.264 40.6478 110.506 41.3764C110.904 42.4804 110.97 43.209 110.97 45.682C110.97 48.1328 110.882 48.8835 110.484 49.9875C110.241 50.7161 109.888 51.6214 109.734 51.9746C109.579 52.3279 109.093 53.189 108.652 53.8514C108.21 54.5138 107.415 55.5074 106.885 56.0594C106.356 56.6114 105.517 57.3621 105.031 57.7595C104.545 58.1348 103.507 58.731 102.713 59.1063C101.918 59.4817 100.703 59.9675 99.9968 60.1883C99.1578 60.4532 98.6721 60.5194 98.5396 60.3649C98.4292 60.2324 98.4734 59.1726 98.628 57.8257C98.8046 56.5451 99.0254 54.8671 99.1579 54.0722C99.3786 52.6812 99.4449 52.5929 100.858 51.3123C101.653 50.5836 102.492 49.59 102.735 49.1043C102.955 48.6185 103.242 47.6691 103.375 47.0067C103.507 46.3443 103.552 45.3066 103.485 44.6884C103.397 44.0922 103.132 43.1428 102.867 42.5908C102.624 42.0388 102.161 41.266 101.851 40.8465C101.542 40.427 100.88 39.8309 100.394 39.5217C99.9085 39.2126 99.0695 38.771 98.5176 38.5723C97.9214 38.3294 96.9279 38.1749 95.9785 38.1749C94.8745 38.1749 94.1238 38.3074 93.329 38.6386C92.7108 38.9035 91.7835 39.4334 91.2757 39.8088C90.3263 40.4712 90.2821 40.4933 88.6262 40.3166C87.6768 40.2283 86.33 40.0517 85.6014 39.9192C84.8728 39.7867 83.9234 39.6322 83.5039 39.5438C83.0844 39.4555 82.709 39.2347 82.6649 39.0581C82.6207 38.8814 82.974 38.1528 83.4376 37.4683C83.9013 36.7839 84.6299 35.8345 85.0715 35.3708C85.5131 34.9071 86.1533 34.2889 86.5066 33.9798C86.8599 33.6707 87.6768 33.0966 88.295 32.6992C88.9353 32.3238 89.9951 31.7939 90.6133 31.551C91.2536 31.3081 92.4679 30.9769 93.329 30.8003C94.1901 30.6458 95.3161 30.4912 95.8681 30.4691ZM60.5417 39.5217C60.7184 39.5217 61.5132 39.6101 62.3081 39.7205C63.1029 39.8309 64.7809 40.0737 66.0615 40.2725C67.3421 40.4712 69.3733 40.7582 70.5877 40.9348C71.802 41.1115 73.8333 41.3985 75.1139 41.5972C76.3944 41.7959 78.0283 42.0388 78.7569 42.1492C79.4855 42.2596 81.1193 42.5025 82.3999 42.7012C83.6805 42.8999 85.3585 43.1428 86.1533 43.2753C86.9482 43.3857 88.582 43.6286 89.7964 43.8052C91.0107 43.9818 92.7549 44.2247 93.6602 44.3572C94.7421 44.5338 95.559 44.7988 95.9785 45.1079C96.3317 45.3728 96.7071 45.9028 96.7733 46.256C96.8616 46.6093 96.8396 47.4925 96.7292 48.2211C96.6408 48.9497 96.398 50.5836 96.1993 51.8642C96.0006 53.1449 95.7577 54.7787 95.6473 55.5074C95.5369 56.236 95.294 57.8699 95.0953 59.1505C94.8966 60.4311 94.6537 62.065 94.5433 62.7936C94.4329 63.5223 94.1901 65.1562 93.9914 66.4368C93.7927 67.7174 93.5056 69.7487 93.329 70.9631C93.1524 72.1775 92.8653 74.1646 92.6887 75.379C92.5121 76.5934 92.203 78.6247 92.0263 79.9053C91.8276 81.1859 91.5848 82.864 91.4523 83.6589C91.3198 84.4537 91.1211 85.6902 91.0107 86.4188C90.9003 87.1474 90.6574 88.7813 90.4587 90.0619C90.26 91.3426 89.973 93.3739 89.7964 94.5883C89.6197 95.8026 89.3327 97.7898 89.1561 99.0042C88.9794 100.219 88.7587 101.61 88.6924 102.095C88.6262 102.581 88.5158 103.31 88.4495 103.707C88.4054 104.127 88.0742 104.679 87.6326 105.076C87.0807 105.606 86.7274 105.738 85.9767 105.738C85.4689 105.738 84.6299 105.65 84.1 105.54C83.5922 105.429 82.0246 105.164 80.6336 104.966C79.2426 104.767 77.5425 104.524 76.8802 104.414C76.2178 104.281 74.6281 104.038 73.3475 103.862C72.067 103.685 70.4331 103.442 69.7045 103.31C68.9759 103.199 67.8278 103.045 67.1654 102.979C66.5031 102.89 65.4212 102.691 64.7809 102.515C64.1627 102.338 63.6328 102.139 63.6328 102.051C63.6328 101.941 64.2069 101.632 64.8913 101.345C65.5978 101.058 66.9226 100.461 67.8278 100.064C68.733 99.6445 69.6824 99.225 69.9253 99.1146C70.1682 99.0042 70.7201 98.7834 71.1396 98.5847C71.5591 98.408 73.2372 97.7015 74.8268 97.0391C76.4386 96.3546 77.8296 95.8026 77.9179 95.8026C78.0283 95.8026 78.3374 95.626 79.1322 95.0298L78.3153 92.8219C77.8737 91.6075 77.2555 90.1282 76.9243 89.51C76.5931 88.9138 75.8866 87.8098 75.3346 87.1033C74.7827 86.3746 73.8333 85.4031 73.2371 84.9616C72.6189 84.4979 71.7358 83.9901 71.25 83.8134C70.7643 83.6147 69.8591 83.3497 69.2629 83.2173C68.446 83.0185 67.8278 83.0185 66.8343 83.1952C66.1056 83.3497 65.1562 83.5485 64.7367 83.6589C64.3172 83.7693 63.2133 84.0784 62.3081 84.3212C61.4028 84.5862 60.2547 84.9395 59.769 85.094C59.2832 85.2486 58.0468 85.646 57.0091 85.9772C55.9714 86.3084 54.448 86.7721 53.5869 87.015C52.7258 87.2358 51.953 87.3903 51.8206 87.3462C51.6881 87.2799 51.6218 86.9046 51.6439 86.5071C51.666 86.0876 51.7985 85.072 51.931 84.2108C52.0634 83.3497 52.3063 81.7159 52.4829 80.5677C52.6596 79.4196 52.9466 77.4324 53.1232 76.1518C53.2998 74.8712 53.631 72.7515 53.8077 71.4047C54.0064 70.0578 54.2492 68.4239 54.3596 67.7615C54.47 67.0992 54.7129 65.4653 54.9116 64.1184C55.1103 62.7716 55.3532 61.2039 55.4636 60.5857C55.5519 59.9895 55.7948 58.3998 55.9935 57.0529C56.1701 55.7061 56.4792 53.6085 56.6779 52.3721C56.8546 51.1135 57.1416 49.1264 57.3182 47.9562C57.4948 46.7639 57.7377 45.1079 57.8702 44.2468C58.0247 43.3857 58.2014 42.3038 58.2897 41.7959C58.378 41.2881 58.6209 40.6699 58.8417 40.3829C59.0625 40.1179 59.4599 39.8088 59.7248 39.6984C59.9898 39.6101 60.3651 39.5217 60.5417 39.5217ZM52.4829 55.949L52.4388 57.3841C52.4167 58.179 52.2842 59.3713 52.1738 60.0337C52.0634 60.6961 51.8426 61.9988 51.7102 62.904C51.5777 63.8093 51.3569 64.9354 51.2465 65.399C51.0478 66.1718 50.9816 66.216 49.988 66.3485C49.4139 66.4147 48.4425 66.6355 47.8463 66.8121C47.2281 66.9888 46.3008 67.4304 45.7488 67.7836C45.1969 68.1369 44.5124 68.6447 44.2033 68.9318C43.8942 69.1967 43.1656 70.0137 42.5695 70.7423C41.9733 71.4709 41.2668 72.5749 41.0019 73.171C40.7148 73.7893 40.2953 74.9595 40.0304 75.8206C39.6992 76.9246 39.5667 77.9844 39.5667 79.5741C39.5667 81.3405 39.6771 82.0912 40.0966 83.3277C40.3837 84.1888 40.8252 85.3148 41.046 85.8668C41.2889 86.4188 41.9954 87.4786 42.6136 88.2514C43.5189 89.3112 44.115 89.797 45.3514 90.4152C46.8086 91.1438 47.1398 91.2101 48.8399 91.2101C49.8776 91.2101 51.4011 91.0334 52.2621 90.8347C53.1232 90.636 54.7571 90.1723 55.9052 89.797C57.0533 89.4437 58.4442 89.0021 58.9962 88.8476C59.5482 88.693 60.5197 88.406 61.1379 88.2072C61.7782 88.0085 62.838 87.6994 63.4562 87.5228C64.0965 87.3241 65.1562 87.037 65.7745 86.8604C66.4147 86.6838 67.3641 86.5292 67.872 86.5292C68.4019 86.5292 69.2188 86.6617 69.7045 86.7942C70.2786 86.9708 71.0513 87.5228 71.9345 88.406C72.7735 89.2229 73.5463 90.2827 73.9658 91.1659C74.3632 91.9608 74.6723 92.8219 74.6723 93.1089C74.6723 93.418 74.4957 93.6388 74.1645 93.7271C73.8995 93.8155 73.2371 94.0584 72.6852 94.3012C72.1332 94.522 71.4929 94.8091 71.25 94.9195C71.0072 95.0298 70.3006 95.3169 69.7045 95.5818C69.0863 95.8468 68.4019 96.1338 68.159 96.2442C67.9161 96.3325 67.2758 96.6196 66.7239 96.8625C66.1719 97.1053 65.377 97.4586 64.9575 97.6352C64.538 97.8119 63.412 98.3197 62.4626 98.7613C61.5353 99.2029 60.7184 99.5562 60.6521 99.5562C60.5859 99.5562 59.6807 99.9536 58.5988 100.461C57.539 100.947 55.9272 101.698 55.022 102.139C54.1168 102.581 51.931 103.641 50.1646 104.502C48.3983 105.363 44.6449 107.439 41.8188 109.095C39.0148 110.773 36.6523 112.142 36.5861 112.142C36.5198 112.142 36.012 112.429 35.4159 112.76C34.8418 113.113 33.5392 113.753 32.5015 114.195C31.4638 114.637 30.0286 115.144 29.3 115.343C28.5714 115.52 27.2688 115.829 26.4298 116.005C25.5687 116.182 23.2504 116.425 21.2412 116.557C19.232 116.69 16.0085 116.734 14.0655 116.646C12.1226 116.557 10.3342 116.425 10.0913 116.337C9.8043 116.226 9.31856 115.431 8.67827 113.996C8.14837 112.804 7.486 111.258 7.1769 110.596C6.88987 109.934 6.51453 109.072 6.3379 108.719C6.16127 108.366 5.83008 107.571 5.56514 106.953C5.30019 106.357 4.969 105.54 4.79237 105.186C4.61574 104.833 4.2404 103.972 3.95337 103.31C3.64426 102.647 2.80526 100.682 2.05458 98.9379C1.32597 97.2157 0.707764 95.5598 0.707764 95.2506C0.707764 94.8091 0.906474 94.6103 1.74547 94.2129C2.34161 93.9259 3.84298 93.1089 5.12356 92.3582C6.40414 91.6075 8.19253 90.4373 9.09777 89.7528C10.003 89.0463 11.8356 87.5007 13.1824 86.3084C14.5071 85.1161 15.9643 83.7693 16.3838 83.3056C16.8033 82.8198 17.7527 81.76 18.5034 80.8989C19.232 80.0378 20.623 78.3156 21.6165 77.035C22.588 75.7544 23.9127 73.9659 24.553 73.0606C25.2154 72.1554 26.3414 70.4994 27.0921 69.4175C27.8428 68.3356 28.8364 66.8784 29.3 66.216C29.7637 65.5536 30.5585 64.5158 31.0443 63.8976C31.53 63.3015 32.4352 62.2637 33.0534 61.6234C33.6496 60.961 34.7094 60.0116 35.3717 59.5259C36.0341 59.018 36.8069 58.466 37.0939 58.3336C37.3588 58.179 37.9991 57.9141 38.5069 57.7374C39.0368 57.5608 40.0083 57.3179 40.6707 57.1854C41.333 57.0529 42.6357 56.8542 43.5409 56.7438C44.4462 56.6114 46.4333 56.3906 47.9567 56.2581C49.4802 56.1256 50.7608 55.971 50.827 55.9269C50.8712 55.8606 51.2686 55.8386 52.4829 55.949ZM49.7231 69.7708C49.8997 69.7487 50.1646 69.8591 50.2971 70.0137C50.4737 70.1903 50.5179 70.6761 50.4075 71.3605C50.3413 71.9346 50.1205 72.4866 49.9438 72.6191C49.7672 72.7295 49.2152 72.9282 48.7295 73.0606C48.2438 73.2152 47.2281 73.5022 46.4554 73.7451C45.7047 73.9659 44.9761 74.1205 44.8657 74.0542C44.7332 73.988 44.6449 73.8114 44.6449 73.6789C44.6449 73.5243 45.0202 72.9503 45.4839 72.4203C45.9255 71.8684 46.7866 71.1176 47.4048 70.7202C48.0009 70.3449 48.7074 69.9695 48.9503 69.9033C49.1932 69.8591 49.5464 69.7929 49.7231 69.7708ZM49.2152 75.7323C49.3698 75.7102 49.5464 75.931 49.5906 76.218C49.6568 76.483 49.6127 77.2999 49.5023 78.0286C49.3477 79.0001 49.1711 79.4637 48.7957 79.7508C48.5087 79.9716 47.8905 80.2365 47.4048 80.369C46.919 80.4794 46.1683 80.6781 45.7488 80.8327C45.3293 80.9652 44.6449 81.1639 44.2475 81.2743C43.7176 81.4067 43.4526 81.3626 43.2098 81.1197C42.989 80.8989 42.8786 80.3469 42.8786 79.53C42.8786 78.8234 42.989 78.0948 43.1435 77.8961C43.2981 77.6974 43.7397 77.4324 44.0929 77.2999C44.4462 77.1675 45.506 76.8583 46.4112 76.5934C47.3164 76.3284 48.2658 76.0414 48.5087 75.931C48.7516 75.8206 49.0828 75.7323 49.2152 75.7323ZM47.7801 83.2393C48.1334 83.2173 48.4425 83.2835 48.4866 83.3939C48.5529 83.4822 48.4866 84.2329 48.3762 85.094C48.2658 86.0655 48.045 86.7942 47.8022 87.037C47.5814 87.2578 47.2281 87.4345 47.0073 87.4124C46.8086 87.4124 46.2125 87.037 45.7047 86.5954C45.2189 86.1318 44.667 85.4031 44.4903 84.9836C44.3137 84.5641 44.2033 84.1888 44.2475 84.1888C44.2916 84.1667 44.954 83.9459 45.7488 83.703C46.5437 83.4601 47.4489 83.2393 47.7801 83.2393Z" fill="white"/>
</svg>
